<svg width="16" height="16" viewBox="0 0 16 16" fill="none" xmlns="http://www.w3.org/2000/svg">
<path d="M8.00001 0C3.58863 0 7.62939e-06 3.58862 7.62939e-06 8C7.62939e-06 12.4114 3.58863 16 8.00001 16C12.4114 16 16 12.4114 16 8C16 3.58862 12.4114 0 8.00001 0ZM12.0547 6.30469L7.72132 10.6379C7.59132 10.7679 7.42066 10.8334 7.25001 10.8334C7.07935 10.8334 6.9087 10.7679 6.77869 10.6379L4.61207 8.47131C4.35133 8.21069 4.35133 7.78931 4.61207 7.52869C4.87269 7.26794 5.29395 7.26794 5.5547 7.52869L7.25001 9.224L11.1121 5.36206C11.3727 5.10132 11.794 5.10132 12.0547 5.36206C12.3153 5.62268 12.3153 6.04395 12.0547 6.30469Z" fill="#5EF38C"/>
</svg>
