<svg fill="none" height="104" viewBox="0 0 104 104" width="104" xmlns="http://www.w3.org/2000/svg" xmlns:xlink="http://www.w3.org/1999/xlink"><clipPath id="a"><path d="m0 0h104v104h-104z"/></clipPath><g clip-path="url(#a)"><path d="m76.1719 44.6875c-2.2437 0-4.0625-1.8188-4.0625-4.0625 0-1.12-.9112-2.0312-2.0313-2.0312-1.12 0-2.0312.9112-2.0312 2.0312 0 2.2437-1.8188 4.0625-4.0625 4.0625s-4.0625-1.8188-4.0625-4.0625c0-5.6002 4.5561-10.1562 10.1562-10.1562 5.6002 0 10.1563 4.556 10.1563 10.1562 0 2.2437-1.8188 4.0625-4.0625 4.0625zm-31.8907-4.0625c0-5.6002-4.556-10.1562-10.1562-10.1562s-10.1562 4.556-10.1562 10.1562c0 2.2437 1.8187 4.0625 4.0624 4.0625 2.2438 0 4.0626-1.8188 4.0626-4.0625 0-1.12.9112-2.0312 2.0312-2.0312s2.0312.9112 2.0312 2.0312c0 2.2437 1.8188 4.0625 4.0626 4.0625 2.2437 0 4.0624-1.8188 4.0624-4.0625zm34.6249 55.8811c1.9192-1.1625 2.5324-3.6605 1.3701-5.5794-1.1625-1.9192-3.6607-2.5326-5.5794-1.3701-6.824 4.1336-14.6723 6.3184-22.6968 6.3184-24.1928 0-43.875-19.6822-43.875-43.875s19.6822-43.875 43.875-43.875 43.875 19.6822 43.875 43.875c0 8.6509-2.5726 17.0714-7.4397 24.3516-1.2469 1.8653-.7458 4.3882 1.1195 5.6351 1.8653 1.2472 4.3883.7457 5.6351-1.1194 5.7631-8.621 8.8101-18.6032 8.8101-28.8673 0-13.8897-5.409-26.948-15.2303-36.7697-9.8217-9.82128-22.88-15.2303-36.7697-15.2303s-26.948 5.40902-36.7697 15.2303c-9.82128 9.8217-15.2303 22.88-15.2303 36.7697s5.40902 26.948 15.2303 36.7697c9.8217 9.8213 22.88 15.2303 36.7697 15.2303 9.5089 0 18.8128-2.591 26.9061-7.4939zm-9.4373-37.3967c-1.3228 0-2.4944.6351-3.2362 1.6138 0 0-5.2849 5.6987-14.2326 5.6987s-14.2326-5.6987-14.2326-5.6987c-.7418-.9787-1.9134-1.6138-3.2362-1.6138-2.2437 0-4.0624 1.8188-4.0624 4.0625 0 1.156.485 2.1966 1.2601 2.9363.7347.815 7.942 8.4387 20.2711 8.4387s19.5364-7.6237 20.2711-8.4387c.7751-.7397 1.2601-1.7803 1.2601-2.9363 0-2.2437-1.8187-4.0625-4.0624-4.0625z" fill="#2e448e"/></g></svg>