<svg fill="none" height="16" viewBox="0 0 66 16" width="66" xmlns="http://www.w3.org/2000/svg"><rect fill="#de00a7" height="16" rx="8" width="66" x=".000031"/><g fill="#fff"><path d="m15.7996 11.5714h-1.35v-7.22995h1.35z"/><path d="m18.0633 3.85645c.16.26333.2684.53833.325.825.0567.28333.0617.565.015.845-.0466.27666-.145.54333-.295.8-.1466.25333-.345.48166-.595.685l-.39-.235c-.0333-.02-.0566-.04334-.07-.07-.0133-.03-.02-.05834-.02-.085.0034-.03.01-.05834.02-.085.0134-.02667.03-.05.05-.07.07-.08334.1367-.19334.2-.33.0634-.13667.1067-.29.13-.46.0267-.17.0234-.35167-.01-.545-.03-.19334-.105-.38667-.225-.58-.0566-.09667-.0733-.18-.05-.25.0267-.07334.0817-.125.165-.155z"/><path d="m19.4304 11.5714v-5.12995h.755c.16 0 .265.075.315.225l.08.38c.09-.1.1833-.19167.28-.275.1-.08334.205-.155.315-.215.1133-.06.2333-.10667.36-.14.13-.03667.2716-.055.425-.055.3233 0 .5883.08833.795.265.21.17333.3666.405.47.695.08-.17.18-.315.3-.435.12-.12334.2516-.22334.395-.3.1433-.07667.295-.13334.455-.17.1633-.03667.3266-.055.49-.055.2833 0 .535.04333.755.13.22.08666.405.21333.555.38.15.16666.2633.37.34.61.08.24.12.515.12.825v3.26495h-1.235v-3.26495c0-.32667-.0717-.57167-.215-.735-.1434-.16667-.3534-.25-.63-.25-.1267 0-.245.02166-.355.065-.1067.04333-.2017.10666-.285.19-.08.08-.1434.18166-.19.305-.0467.12333-.07.265-.07.425v3.26495h-1.24v-3.26495c0-.34334-.07-.59334-.21-.75-.1367-.15667-.3384-.235-.605-.235-.18 0-.3484.045-.505.135-.1534.08666-.2967.20666-.43.36v3.75495z"/><path d="m31.4759 6.99145c.2-.18667.42-.33834.66-.455.24-.11667.5217-.175.845-.175.28 0 .5283.04833.745.145.2167.09333.3967.22666.54.4.1467.17.2567.375.33.615.0767.23666.115.49833.115.785v3.26495h-1.235v-3.26495c0-.31334-.0717-.555-.215-.725-.1433-.17334-.3617-.26-.655-.26-.2133 0-.4133.04833-.6.145-.1867.09666-.3633.22833-.53.395v3.70995h-1.235v-7.42995h1.235z"/><path d="m39.1904 8.41645c0-.16-.0233-.31-.07-.45-.0433-.14334-.11-.26834-.2-.375-.09-.10667-.205-.19-.345-.25-.1366-.06334-.2966-.095-.48-.095-.3566 0-.6383.10166-.845.305-.2033.20333-.3333.49166-.39.865zm-2.355.745c.02.26333.0667.49166.14.685.0734.18995.17.34835.29.47495.12.1234.2617.2167.425.28.1667.06.35.09.55.09s.3717-.0233.515-.07c.1467-.0466.2734-.0983.38-.155.11-.0566.205-.1083.285-.155.0834-.0466.1634-.07.24-.07.1034 0 .18.0384.23.115l.355.45c-.1366.16-.29.295-.46.405-.17.1067-.3483.1934-.535.26-.1833.0634-.3716.1084-.565.135-.19.0267-.375.04-.555.04-.3566 0-.6883-.0583-.995-.175-.3066-.12-.5733-.295-.8-.525-.2266-.2333-.405-.52-.535-.86-.13-.34329-.195-.73995-.195-1.18995 0-.35.0567-.67834.17-.985.1134-.31.275-.57834.485-.805.2134-.23.4717-.41167.775-.545.3067-.13334.6517-.2 1.035-.2.3234 0 .6217.05166.895.155.2734.10333.5084.255.705.455.1967.19666.35.44.46.73.1134.28666.17.615.17.985 0 .18666-.02.31333-.06.38-.04.06333-.1166.095-.23.095z"/><path d="m42.3922 7.33145c.16-.30667.35-.54667.57-.72.22-.17667.48-.265.78-.265.2367 0 .4267.05166.57.155l-.08.925c-.0166.06-.0416.10333-.075.13-.03.02333-.0716.035-.125.035-.05 0-.125-.00834-.225-.025-.0966-.01667-.1916-.025-.285-.025-.1366 0-.2583.02-.365.06-.1066.04-.2033.09833-.29.175-.0833.07333-.1583.16333-.225.27-.0633.10666-.1233.22833-.18.365v3.15995h-1.235v-5.12995h.725c.1267 0 .215.02333.265.07.05.04333.0834.12333.1.24z"/><path d="m48.1162 8.41645c0-.16-.0233-.31-.07-.45-.0433-.14334-.11-.26834-.2-.375-.09-.10667-.205-.19-.345-.25-.1366-.06334-.2966-.095-.48-.095-.3566 0-.6383.10166-.845.305-.2033.20333-.3333.49166-.39.865zm-2.355.745c.02.26333.0667.49166.14.685.0734.18995.17.34835.29.47495.12.1234.2617.2167.425.28.1667.06.35.09.55.09s.3717-.0233.515-.07c.1467-.0466.2734-.0983.38-.155.11-.0566.205-.1083.285-.155.0834-.0466.1633-.07.24-.07.1033 0 .18.0384.23.115l.355.45c-.1366.16-.29.295-.46.405-.17.1067-.3483.1934-.535.26-.1833.0634-.3716.1084-.565.135-.19.0267-.375.04-.555.04-.3566 0-.6883-.0583-.995-.175-.3066-.12-.5733-.295-.8-.525-.2266-.2333-.405-.52-.535-.86-.13-.34329-.195-.73995-.195-1.18995 0-.35.0567-.67834.17-.985.1134-.31.275-.57834.485-.805.2134-.23.4717-.41167.775-.545.3067-.13334.6517-.2 1.035-.2.3233 0 .6217.05166.895.155.2733.10333.5084.255.705.455.1967.19666.35.44.46.73.1134.28666.17.615.17.985 0 .18666-.02.31333-.06.38-.04.06333-.1166.095-.23.095z"/><path d="m51.533 4.34145v2.86c0 .30333-.015.60166-.045.895-.03.29-.0683.59833-.115.925h-.84c-.0467-.32667-.085-.635-.115-.925-.03-.29334-.045-.59167-.045-.895v-2.86zm-1.355 6.54995c0-.1033.0183-.2016.055-.295.04-.0933.0933-.1733.16-.24.07-.0666.1517-.12.245-.16s.1933-.06.3-.06c.1033 0 .2017.02.295.06s.1733.0934.24.16c.07.0667.125.1467.165.24.04.0934.06.1917.06.295 0 .1067-.02.2067-.06.3-.04.09-.095.1684-.165.235-.0667.0667-.1467.1184-.24.155-.0933.04-.1917.06-.295.06-.1067 0-.2067-.02-.3-.06-.0933-.0366-.175-.0883-.245-.155-.0667-.0666-.12-.145-.16-.235-.0367-.0933-.055-.1933-.055-.3z"/></g></svg>