<svg fill="none" height="22" viewBox="0 0 22 22" width="22" xmlns="http://www.w3.org/2000/svg"><rect fill="#fff" height="21" rx="4.5" stroke="#979797" width="21" x=".5" y=".5"/><g fill="#292936"><path d="m6.86731 13.756v.544h-3.072v-.544h1.228v-3.90797c0-.11733.004-.236.012-.356l-1.02.87597c-.03467.0294-.06933.048-.104.056-.03467.0054-.06667.0054-.096 0-.02933-.0053-.05733-.016-.084-.032-.024-.016-.04267-.0333-.056-.052l-.224-.308 1.708-1.47597h.58v5.19997z"/><path d="m8.88393 10.732c.29867-.064.57334-.096.824-.096.29867 0 .56267.044.79197.132.2294.088.42.2094.572.364.1547.1547.2707.3374.348.548.08.2107.12.44.12.688 0 .304-.0533.5787-.16.824-.104.2454-.2493.456-.436.632-.184.1734-.4013.3067-.652.4-.2506.0934-.5213.14-.81197.14-.168 0-.32933-.0173-.484-.052-.15466-.032-.3-.076-.436-.132-.13333-.056-.25733-.12-.372-.192-.11466-.072-.216-.148-.304-.228l.22-.304c.048-.0693.11067-.104.188-.104.05334 0 .11334.0214.18.064.06667.04.148.0854.244.136.096.0507.208.0974.336.14.13067.04.28534.06.464.06.2 0 .38-.032.53997-.096.16-.064.2974-.1546.412-.272.1147-.12.2027-.2626.264-.428.0614-.1653.092-.3506.092-.556 0-.1786-.0266-.34-.08-.484-.0506-.144-.1293-.2666-.236-.368-.104-.1013-.2346-.18-.392-.236-.1573-.056-.3413-.084-.55197-.084-.144 0-.29466.012-.452.036-.15466.024-.31333.0627-.476.116l-.448-.132.46-2.67997h2.71597v.312c0 .10133-.032.18533-.096.252-.0613.064-.168.096-.32.096h-1.79997z"/><path d="m12.6406 14.3v-4.052h.428c.1013 0 .164.0494.188.148l.052.416c.1493-.184.3173-.3346.504-.452.1866-.1173.4026-.176.648-.176.272 0 .492.076.66.228.1706.152.2933.3574.368.616.0586-.1466.1333-.2733.224-.38.0933-.1066.1973-.1946.312-.264.1146-.0693.236-.12.364-.152.1306-.032.2626-.048.396-.048.2133 0 .4026.0347.568.104.168.0667.3093.1654.424.296.1173.1307.2066.292.268.484.0613.1894.092.4067.092.652v2.58h-.716v-2.58c0-.3173-.0694-.5573-.208-.72-.1387-.1653-.3387-.248-.6-.248-.1174 0-.2294.0214-.336.064-.104.04-.196.1-.276.18s-.144.1814-.192.304c-.0454.12-.068.26-.068.42v2.58h-.716v-2.58c0-.3253-.0654-.568-.196-.728-.1307-.16-.3214-.24-.572-.24-.176 0-.3387.048-.488.144-.1494.0934-.2867.2214-.412.384v3.02z"/></g></svg>