<svg fill="none" height="27" viewBox="0 0 27 27" width="27" xmlns="http://www.w3.org/2000/svg" xmlns:xlink="http://www.w3.org/1999/xlink"><clipPath id="a"><path d="m0 0h15.6v15.6h-15.6z" transform="matrix(-1 0 0 1 21.3 5.69995)"/></clipPath><circle fill="#5ef38c" r="13.5" transform="matrix(-1 0 0 1 13.5 13.5)"/><g clip-path="url(#a)"><path d="m9.87421 12.4031c.33659 0 .60939-.2728.60939-.6094 0-.168.1367-.3047.3047-.3047s.3047.1367.3047.3047c0 .3366.2728.6094.6093.6094.3366 0 .6094-.2728.6094-.6094 0-.84-.6834-1.5234-1.5234-1.5234-.84005 0-1.52347.6834-1.52347 1.5234 0 .3366.27282.6094.60938.6094zm4.78359-.6094c0-.84.6834-1.5234 1.5234-1.5234.8401 0 1.5235.6834 1.5235 1.5234 0 .3366-.2728.6094-.6094.6094s-.6094-.2728-.6094-.6094c0-.168-.1367-.3047-.3047-.3047s-.3046.1367-.3046.3047c0 .3366-.2729.6094-.6094.6094-.3366 0-.6094-.2728-.6094-.6094zm-5.19373 8.3822c-.28787-.1744-.37986-.5491-.20552-.8369.17438-.2879.54911-.3799.83695-.2056 1.0236.6201 2.2008.9478 3.4045.9478 3.6289 0 6.5812-2.9523 6.5812-6.5812 0-3.62897-2.9523-6.5813-6.5812-6.5813-3.62893 0-6.58126 2.95233-6.58126 6.5813 0 1.2976.38588 2.5607 1.11595 3.6527.18704.2798.11188.6582-.16792.8453-.27979.187-.65824.1118-.84526-.168-.86452-1.2931-1.32152-2.7904-1.32152-4.33 0-2.0835.81135-4.04225 2.28454-5.5155 1.47326-1.4732 3.43197-2.28455 5.51547-2.28455 2.0834 0 4.0422.81135 5.5154 2.28455 1.4732 1.47325 2.2846 3.432 2.2846 5.5155 0 2.0834-.8114 4.0421-2.2846 5.5154-1.4732 1.4732-3.432 2.2846-5.5154 2.2846-1.4263 0-2.8219-.3887-4.03593-1.1241zm1.41563-5.6095c.1984 0 .3741.0952.4854.242 0 0 .7927.8548 2.1349.8548 1.3421 0 2.1349-.8548 2.1349-.8548.1112-.1468.287-.242.4854-.242.3366 0 .6094.2728.6094.6093 0 .1734-.0728.3295-.1891.4405-.1102.1222-1.1913 1.2658-3.0406 1.2658-1.8494 0-2.9305-1.1436-3.0407-1.2658-.1162-.111-.189-.2671-.189-.4405 0-.3365.2728-.6093.6094-.6093z" fill="#2e448e"/></g></svg>