<svg fill="none" height="16" viewBox="0 0 83 16" width="83" xmlns="http://www.w3.org/2000/svg"><rect fill="#de00a7" height="16" rx="8" width="83"/><g fill="#fff"><path d="m17.7168 10.4614v1.11h-4.235v-7.23003h1.345v6.12003z"/><path d="m21.5234 8.41637c0-.16-.0233-.31-.07-.45-.0433-.14333-.11-.26833-.2-.375-.09-.10666-.205-.19-.345-.25-.1366-.06333-.2966-.095-.48-.095-.3566 0-.6383.10167-.845.305-.2033.20334-.3333.49167-.39.865zm-2.355.745c.02.26334.0667.49167.14.685.0734.19003.17.34833.29.47503.12.1233.2617.2166.425.28.1667.06.35.09.55.09s.3717-.0234.515-.07c.1467-.0467.2734-.0984.38-.155.11-.0567.205-.1084.285-.155.0834-.0467.1634-.07.24-.07.1034 0 .18.0383.23.115l.355.45c-.1366.16-.29.295-.46.405-.17.1066-.3483.1933-.535.26-.1833.0633-.3716.1083-.565.135-.19.0266-.375.04-.555.04-.3566 0-.6883-.0584-.995-.175-.3066-.12-.5733-.295-.8-.525-.2266-.2334-.405-.52-.535-.86-.13-.34336-.195-.74003-.195-1.19003 0-.35.0567-.67833.17-.985.1134-.31.275-.57833.485-.805.2134-.23.4717-.41166.775-.545.3067-.13333.6517-.2 1.035-.2.3234 0 .6217.05167.895.155.2734.10334.5084.255.705.455.1967.19667.35.44.46.73.1134.28667.17.615.17.985 0 .18667-.02.31334-.06.38-.04.06334-.1166.095-.23.095z"/><path d="m26.2702 9.38137c-.3567.01667-.6567.04834-.9.095-.2433.04334-.4383.1-.585.17s-.2517.15167-.315.245c-.0633.09334-.095.19503-.095.30503 0 .2166.0633.3716.19.465.13.0933.2983.14.505.14.2533 0 .4717-.045.655-.135.1867-.0934.3683-.2334.545-.42zm-2.83-2.225c.59-.54 1.3-.81 2.13-.81.3 0 .5683.05.805.15.2367.09667.4367.23334.6.41.1633.17334.2867.38167.37.625.0867.24334.13.51.13.8v3.24003h-.56c-.1167 0-.2067-.0167-.27-.05-.0633-.0367-.1133-.1084-.15-.215l-.11-.37c-.13.1166-.2567.22-.38.31-.1233.0866-.2517.16-.385.22s-.2767.105-.43.135c-.15.0333-.3167.05-.5.05-.2167 0-.4167-.0284-.6-.085-.1833-.06-.3417-.1484-.475-.265-.1333-.1167-.2367-.2617-.31-.435-.0733-.1734-.11-.375-.11-.605 0-.13.0217-.2584.065-.38503.0433-.13.1133-.25333.21-.37.1-.11666.2283-.22666.385-.33.1567-.10333.3483-.19333.575-.27.23-.07666.4967-.13833.8-.185.3033-.05.65-.08 1.04-.09v-.3c0-.34333-.0733-.59666-.22-.76-.1467-.16666-.3583-.25-.635-.25-.2 0-.3667.02334-.5.07-.13.04667-.245.1-.345.16-.1.05667-.1917.10834-.275.155-.08.04667-.17.07-.27.07-.0867 0-.16-.02166-.22-.065-.06-.04666-.1083-.1-.145-.16z"/><path d="m33.1462 6.44137-2.035 5.13003h-1.12l-2.035-5.13003h1.02c.0933 0 .17.02167.23.065.0633.04334.105.09834.125.165l.99 2.74c.0533.16.1.31667.14.47s.075.30663.105.46003c.0333-.1534.07-.3067.11-.46003s.0883-.31.145-.47l1.01-2.74c.0233-.06666.065-.12166.125-.165.06-.04333.1316-.065.215-.065z"/><path d="m35.0844 6.44137v5.13003h-1.24v-5.13003zm.17-1.495c0 .10667-.0217.20667-.065.3-.0434.09334-.1017.175-.175.245-.07.07-.1534.12667-.25.17-.0967.04-.2.06-.31.06-.1067 0-.2084-.02-.305-.06-.0934-.04333-.175-.1-.245-.17s-.1267-.15166-.17-.245c-.04-.09333-.06-.19333-.06-.3 0-.11.02-.21333.06-.31.0433-.09666.1-.18.17-.25s.1516-.125.245-.165c.0966-.04333.1983-.065.305-.065.11 0 .2133.02167.31.065.0966.04.18.095.25.165.0733.07.1316.15334.175.25.0433.09667.065.2.065.31z"/><path d="m37.4984 7.07137c.1034-.10333.2117-.19833.325-.285.1167-.09.2384-.165.365-.225.13-.06333.2683-.11166.415-.145.1467-.03666.3067-.055.48-.055.28 0 .5284.04834.745.145.2167.09334.3967.22667.54.4.1467.17.2567.375.33.615.0767.23667.115.49834.115.785v3.26503h-1.235v-3.26503c0-.31333-.0716-.555-.215-.725-.1433-.17333-.3617-.26-.655-.26-.2133 0-.4133.04834-.6.145-.1866.09667-.3633.22834-.53.395v3.71003h-1.235v-5.13003h.755c.16 0 .265.075.315.225z"/><path d="m43.8629 8.88137c.1534 0 .2867-.02.4-.06.1134-.04333.2067-.10166.28-.175.0767-.07333.1334-.16166.17-.265.04-.10333.06-.21666.06-.34 0-.25333-.0766-.45333-.23-.6-.15-.15-.3766-.225-.68-.225-.3033 0-.5316.075-.685.225-.15.14667-.225.34667-.225.6 0 .12.0184.23167.055.335.04.10334.0967.19334.17.27.0767.07334.1717.13167.285.175.1167.04.25.06.4.06zm1.395 2.92003c0-.1-.03-.1817-.09-.245-.06-.0634-.1416-.1117-.2449-.145-.1034-.0367-.2251-.0634-.3651-.08-.1366-.0167-.2833-.0284-.4399-.035-.1534-.01-.3134-.0184-.4801-.025-.1633-.0067-.3233-.02-.48-.04-.1366.0766-.2483.1666-.335.27-.0833.1033-.125.2233-.125.36 0 .09.0217.1733.065.25.0467.08.1184.1483.215.205.1.0566.2284.1.385.13.1567.0333.3484.05.5751.05.23 0 .4283-.0184.5949-.055.1667-.0334.3034-.0817.41-.145.11-.06.19-.1334.24-.22.05-.0834.075-.175.075-.275zm1.23-5.18503v.46c0 .14667-.0883.23667-.265.27l-.46.085c.07.17667.1051.37.1051.58 0 .25334-.0517.48334-.1551.69-.1.20334-.24.37667-.42.52-.18.14334-.3933.255-.6399.335-.2434.07667-.5067.115-.7901.115-.1 0-.1966-.005-.29-.015-.0933-.01-.185-.02333-.275-.04-.16.09667-.24.205-.24.325 0 .10333.0467.18003.14.23003.0967.0466.2234.08.38.1.1567.02.335.0333.535.04.2.0033.405.0133.615.03.21.0166.415.0466.615.09.2.04.3784.105.535.195.1567.09.2817.2133.375.37.0967.1533.145.3516.145.595 0 .2266-.0566.4466-.17.66-.11.2133-.2716.4033-.4849.57-.21.1666-.4701.3-.7801.4-.3066.1033-.6566.155-1.05.155-.3866 0-.7233-.0384-1.0099-.115-.2867-.0734-.525-.1734-.715-.3-.19-.1234-.3317-.2667-.4251-.43-.0933-.1634-.14-.3334-.14-.51 0-.24.0717-.44.215-.6.1467-.1634.3467-.2934.6001-.39-.1367-.07-.2451-.1634-.3251-.28-.08-.1167-.1199-.27-.1199-.46 0-.0767.0133-.155.0399-.235.03-.08336.0717-.16503.125-.24503.0567-.08.1267-.155.2101-.225.0833-.07333.1816-.13833.2949-.195-.26-.14-.465-.32666-.615-.56-.1466-.23333-.22-.50666-.22-.82 0-.25333.05-.48166.15-.685.1034-.20666.2451-.38166.4251-.525.1833-.14666.3983-.25833.645-.335.25-.07666.5216-.115.8149-.115.22 0 .4267.02334.62.07.1934.04334.3701.10834.5301.195z"/><path d="m55.9928 4.34137v7.23003h-.69c-.1067 0-.1967-.0167-.27-.05-.07-.0367-.1383-.0967-.205-.18l-3.775-4.82003c.02.22.03.42334.03.61v4.44003h-1.185v-7.23003h.705c.0567 0 .105.00334.145.01.0433.00334.08.01334.11.03.0333.01334.065.035.095.065.03.02667.0633.06334.1.11l3.79 4.84c-.01-.11666-.0183-.23166-.025-.345-.0067-.11333-.01-.21833-.01-.315v-4.395z"/><path d="m59.5216 6.36137c.38 0 .725.06167 1.035.185.3134.12334.58.29834.8.525.2234.22667.395.50334.515.83.12.32667.18.69167.18 1.095 0 .40667-.06.77334-.18 1.10003-.12.3266-.2916.605-.515.835-.22.23-.4866.4066-.8.53-.31.1233-.655.185-1.035.185-.3833 0-.7316-.0617-1.045-.185-.3133-.1234-.5816-.3-.805-.53-.22-.23-.3916-.5084-.515-.835-.12-.32669-.18-.69336-.18-1.10003 0-.40333.06-.76833.18-1.095.1234-.32666.295-.60333.515-.83.2234-.22666.4917-.40166.805-.525.3134-.12333.6617-.185 1.045-.185zm0 4.33503c.4267 0 .7417-.1434.945-.43.2067-.28669.31-.70669.31-1.26003 0-.55333-.1033-.975-.31-1.265-.2033-.29-.5183-.435-.945-.435-.4333 0-.755.14667-.965.44-.2066.29-.31.71-.31 1.26s.1034.97.31 1.26003c.21.2866.5317.43.965.43z"/><path d="m70.2309 6.44137-1.63 5.13003h-.99c-.1133 0-.1917-.0734-.235-.22l-.92-2.96503c-.03-.1-.0583-.19833-.085-.295-.0233-.1-.0433-.2-.06-.3-.02.1-.0433.20167-.07.305-.0233.1-.05.2-.08.3l-.935 2.95503c-.04.1466-.1283.22-.265.22h-.95l-1.625-5.13003h.985c.09 0 .1667.02167.23.065.0634.04334.105.09834.125.165l.735 2.74c.0367.15.0683.29667.095.44.03.14334.055.28663.075.43003.0367-.1434.075-.28669.115-.43003.0434-.14333.0884-.29.135-.44l.85-2.75c.02-.06666.0584-.12166.115-.165.06-.04333.1317-.065.215-.065h.545c.0867 0 .16.02167.22.065.0634.04334.105.09834.125.165l.825 2.75c.0434.15.0834.29834.12.445.04.14334.0784.28663.115.43003.0434-.2834.105-.57503.185-.87503l.755-2.74c.0234-.06666.065-.12166.125-.165.06-.04333.1317-.065.215-.065z"/></g></svg>